<?xml version="1.0" standalone="no"?>
<!DOCTYPE svg PUBLIC "-//W3C//DTD SVG 1.1//EN" "http://www.w3.org/Graphics/SVG/1.1/DTD/svg11.dtd" >
<svg xmlns="http://www.w3.org/2000/svg">
<metadata></metadata>
<defs>
<font id="a_GroticCnRegular" horiz-adv-x="930" >
<font-face units-per-em="2048" ascent="1638" descent="-410" />
<missing-glyph horiz-adv-x="256" />
<glyph horiz-adv-x="0" />
<glyph horiz-adv-x="2048" />
<glyph unicode="&#xd;" horiz-adv-x="256" />
<glyph unicode=" "  horiz-adv-x="256" />
<glyph unicode="&#x09;" horiz-adv-x="256" />
<glyph unicode="&#xa0;" horiz-adv-x="256" />
<glyph unicode="!" horiz-adv-x="502" d="M172 0v178h158v-178h-158zM172 1475h158l-29 -1123h-98z" />
<glyph unicode="&#x22;" horiz-adv-x="406" d="M39 1462h133l-18 -530h-97zM233 1462h134l-19 -530h-96z" />
<glyph unicode="#" horiz-adv-x="780" d="M43 383v90h129l49 385h-178v90h188l48 371h96l-47 -371h186l47 371h98l-47 -371h121v-90h-131l-49 -385h180v-90h-190l-45 -371h-101l47 371h-186l-47 -371h-94l45 371h-119zM268 473h187l49 385h-187z" />
<glyph unicode="$" horiz-adv-x="778" d="M51 387h129q0 -251 176 -276v555l-127 57q-170 77 -170 317q0 163 79.5 271t217.5 108v176h64v-176q131 0 203.5 -89t72.5 -234h-123q0 89 -44.5 151t-108.5 62v-514l72 -35q129 -63 181 -133t52 -233.5t-83 -278.5t-222 -115v-211h-64v211q-305 0 -305 387zM190 1053 q0 -159 107 -207l59 -27v490q-73 0 -119.5 -76t-46.5 -180zM420 111q83 9 131.5 85t48.5 176t-31 165.5t-84 83.5l-65 22v-532z" />
<glyph unicode="%" horiz-adv-x="1221" d="M70 1108q0 367 213 367t213 -351q0 -383 -220 -383q-206 0 -206 367zM180 1113q0 -273 101 -273q108 0 108 282q0 123 -28.5 193.5t-75.5 70.5q-105 0 -105 -273zM287 -27l561 1502h80l-561 -1502h-80zM723 340q0 367 214 367t214 -351q0 -383 -219 -383q-209 0 -209 367 zM831 342q0 -272 104.5 -272t104.5 272t-102 272q-107 0 -107 -272z" />
<glyph unicode="&#x26;" horiz-adv-x="913" d="M59 353.5q0 141.5 45.5 237t188.5 222.5q-68 124 -92.5 192t-24.5 174.5t62.5 198.5t174 92t166 -84.5t54.5 -203.5q0 -212 -189 -394l191 -344q28 97 43 224h110q-13 -162 -83 -369l159 -299h-141l-88 162q-106 -193 -277.5 -193t-246.5 144q-52 99 -52 240.5z M180 347.5q0 -132.5 60.5 -199t115.5 -66.5q128 0 224 194l-232 435q-93 -95 -130.5 -163t-37.5 -200.5zM295 1167q0 -136 96 -280q123 123 123 278q0 106 -33 149.5t-69 43.5q-117 0 -117 -191z" />
<glyph unicode="'" horiz-adv-x="246" d="M59 1462h127l-18 -530h-90z" />
<glyph unicode="(" horiz-adv-x="463" d="M121 606q0 425 166 1065h102q-135 -537 -135 -1065t135 -1065h-102q-166 640 -166 1065z" />
<glyph unicode=")" horiz-adv-x="463" d="M76 -459q133 529 133 1059t-133 1071h100q166 -640 166 -1065t-166 -1065h-100z" />
<glyph unicode="*" horiz-adv-x="879" d="M74 1126v140l305 -35l-189 248l119 69l131 -282l119 282l121 -69l-180 -248l305 35v-140l-305 33l180 -252l-121 -71l-119 288l-131 -288l-119 71l189 252z" />
<glyph unicode="+" horiz-adv-x="975" d="M63 645v139h355v346h141v-346h352v-139h-352v-346h-141v346h-355z" />
<glyph unicode="," horiz-adv-x="389" d="M51 -242l84 480h154l-142 -480h-96z" />
<glyph unicode="-" horiz-adv-x="543" d="M78 479v148h387v-148h-387z" />
<glyph unicode="." horiz-adv-x="389" d="M117 12v228h153v-228h-153z" />
<glyph unicode="/" horiz-adv-x="389" d="M4 -27l289 1528h92l-289 -1528h-92z" />
<glyph unicode="0" horiz-adv-x="780" d="M82 674v37q0 363 72 529.5t239 166.5t236 -163.5t69 -532.5v-35q0 -696 -309 -696q-163 0 -235 166.5t-72 527.5zM211 676q0 -586 179 -586t179 586v35q0 585 -179 585t-179 -585v-35z" />
<glyph unicode="1" horiz-adv-x="780" d="M137 0v121h205v1110q-64 -54 -158 -103v134q54 37 154 145h133v-1286h186v-121h-520z" />
<glyph unicode="2" horiz-adv-x="780" d="M96 143q293 432 373 590t80 289t-43 199.5t-109 68.5t-109.5 -66t-43.5 -177h-135q0 167 74.5 263.5t206 96.5t210 -99.5t78.5 -269.5q0 -267 -211 -583l-223 -334h434v-121h-569z" />
<glyph unicode="3" horiz-adv-x="780" d="M74 332h139q0 -102 41 -166t125.5 -64t135 72.5t50.5 204t-64.5 213.5t-162.5 82h-33v102q242 0 242 271q0 112 -42 174.5t-114.5 62.5t-119 -58t-46.5 -149h-135q0 139 78.5 234.5t218 95.5t217.5 -100t78 -263q0 -228 -162 -315v-4q178 -86 178 -356q0 -172 -87 -280.5 t-235.5 -108.5t-225 95t-76.5 257z" />
<glyph unicode="4" horiz-adv-x="780" d="M47 457q287 449 359 950h131q-63 -490 -365 -963h283v340l123 187v-527h149v-118h-149v-326h-123v326h-373z" />
<glyph unicode="5" horiz-adv-x="780" d="M92 301h137q22 -201 156 -201q78 0 127 113t49 274.5t-48.5 247.5t-131.5 86q-45 0 -88 -48.5t-64 -129.5h-129l23 739h536v-122h-423l-13 -439q70 109 194 109t200.5 -121t76.5 -327t-91.5 -355.5t-240.5 -149.5q-123 0 -192.5 89t-77.5 235z" />
<glyph unicode="6" horiz-adv-x="780" d="M82 649q0 758 334 758q116 0 192 -90.5t76 -214.5h-123q-6 91 -48.5 146t-98.5 55q-197 0 -197 -537v-21q58 140 211 140q125 0 201 -113.5t76 -312.5q0 -479 -304 -479q-319 0 -319 669zM217 434q0 -156 55.5 -250t131 -94t126 93.5t50.5 256.5t-47.5 248.5t-121 85.5 t-134 -94.5t-60.5 -226.5v-19z" />
<glyph unicode="7" horiz-adv-x="780" d="M86 1260v122h592l37 -122q-343 -780 -353 -1260h-155q33 285 138 631.5t239 628.5h-498z" />
<glyph unicode="8" horiz-adv-x="780" d="M74 375q0 258 188 348v6q-172 79 -172 336q0 147 82.5 244.5t216.5 97.5t217.5 -97.5t83.5 -244.5q0 -258 -174 -336v-6q191 -93 191 -356q0 -171 -85.5 -279t-233.5 -108t-231 106.5t-83 288.5zM209 376.5q0 -123.5 51 -205t130 -81.5t129 78.5t50 207t-50 215.5 t-129.5 87t-130 -89t-50.5 -212.5zM217 1054q0 -106 49.5 -186t123.5 -80t122.5 75.5t48.5 189.5t-46.5 182t-121.5 68t-125.5 -71.5t-50.5 -177.5z" />
<glyph unicode="9" horiz-adv-x="780" d="M74 944q0 208 84 335.5t230.5 127.5t219.5 -125q90 -156 90 -553.5t-81.5 -573t-251.5 -175.5q-117 0 -194 90t-77 215h127q0 -92 40 -146.5t106 -54.5q196 0 196 573q-70 -155 -213 -155q-122 0 -199 117t-77 325zM199 952.5q0 -156.5 50 -248.5t121.5 -92t132 100 t60.5 232v12q0 340 -188 340q-75 0 -125.5 -93.5t-50.5 -250z" />
<glyph unicode=":" horiz-adv-x="397" d="M117 0v227h157v-227h-157zM117 801v227h157v-227h-157z" />
<glyph unicode=";" horiz-adv-x="395" d="M41 -258l84 487h154l-142 -487h-96zM117 805v227h157v-227h-157z" />
<glyph unicode="&#x3c;" horiz-adv-x="975" d="M74 680v117l813 432v-135l-664 -349v-16l664 -348v-135z" />
<glyph unicode="=" horiz-adv-x="975" d="M88 475v123h799v-123h-799zM88 872v123h799v-123h-799z" />
<glyph unicode="&#x3e;" horiz-adv-x="975" d="M88 246v135l664 348v16l-664 349v135l813 -432v-117z" />
<glyph unicode="?" horiz-adv-x="678" d="M84 1300v152q91 47 197 47q149 0 234 -99t85 -247.5t-65 -264.5q-61 -93 -122 -187q-65 -113 -65 -244v-105h-115v137q0 116 56.5 211t110.5 182q59 115 59 261q0 225 -180 225q-86 0 -195 -68zM217 0v170h154v-170h-154z" />
<glyph unicode="@" horiz-adv-x="1677" d="M102 550q0 391 235.5 658t573.5 267q278 0 470 -193t192 -498.5t-125 -481t-305 -175.5q-79 0 -129.5 39t-50.5 98h-7q-82 -137 -235 -137q-250 0 -250 332q0 237 110 395t271 158q128 0 199 -129l34 129l111 -35l-117 -576q-6 -30 -6 -71q0 -94 86 -94q114 0 205.5 157 t91.5 396t-151 401t-400 162q-294 0 -491 -236.5t-197 -570.5t174 -524.5t451 -190.5t495 190l43 -81q-236 -224 -546 -224t-521 222t-211 613zM598 455q0 -219 150 -219q90 0 149 88t82 202l39 193q-29 184 -160 184q-110 0 -185 -130t-75 -318z" />
<glyph unicode="A" horiz-adv-x="969" d="M14 0l408 1475h149l385 -1475h-151l-103 393h-446l-109 -393h-133zM289 516h389l-189 787z" />
<glyph unicode="B" horiz-adv-x="899" d="M113 0v1475h344q148 0 239.5 -94t91.5 -269q0 -113 -44 -208.5t-128 -125.5v-4q209 -70 209 -362q0 -209 -92.5 -310.5t-249.5 -101.5h-370zM248 121h217q217 0 217 289q0 309 -266 309q-98 0 -168 -14v-584zM248 838q79 -17 168 -17q231 0 231 266.5t-203 266.5h-196 v-516z" />
<glyph unicode="C" horiz-adv-x="907" d="M80 678v121q0 702 393 702q176 0 275.5 -105t99.5 -272h-139q0 110 -64.5 180t-155.5 70q-117 0 -194.5 -159t-77.5 -441v-69q0 -286 74.5 -445.5t197.5 -159.5q92 0 156 72.5t64 187.5h139q0 -170 -100 -278.5t-279.5 -108.5t-284 180t-104.5 525z" />
<glyph unicode="D" horiz-adv-x="991" d="M111 0v1475h315q487 0 487 -737.5t-487 -737.5h-315zM244 131h182q346 0 346 606t-346 606h-182v-1212z" />
<glyph unicode="E" horiz-adv-x="829" d="M111 0v1475h618v-129h-483v-512h463v-125h-463v-580h491v-129h-626z" />
<glyph unicode="F" horiz-adv-x="756" d="M111 0v1475h581v-132h-446v-518h383v-129h-383v-696h-135z" />
<glyph unicode="G" horiz-adv-x="1006" d="M78 724.5q0 362.5 118.5 567.5t346.5 205q166 0 267 -123.5t101 -273.5h-139q0 111 -63.5 200t-165.5 89q-149 0 -236.5 -175.5t-87.5 -480t92.5 -469t255.5 -164.5q94 0 205 66v485h-246v123h385v-682q-172 -119 -386 -119t-330.5 194.5t-116.5 557z" />
<glyph unicode="H" horiz-adv-x="979" d="M111 0v1475h133v-650h491v650h133v-1475h-133v702h-491v-702h-133z" />
<glyph unicode="I" horiz-adv-x="375" d="M121 0v1475h131v-1475h-131z" />
<glyph unicode="J" horiz-adv-x="410" d="M-115 -100q39 -33 99 -33q99 0 136.5 86t37.5 303v1225h135v-1260q0 -261 -72.5 -372t-230.5 -111q-64 0 -105 24v138z" />
<glyph unicode="K" horiz-adv-x="907" d="M113 0v1475h135v-619q78 -14 161.5 -14t132 70t48.5 171v148q0 262 133 262q54 0 102 -16v-125q-36 12 -59 12q-53 0 -53 -166v-90q0 -96 -23.5 -160t-87.5 -145q117 -76 155 -171t38 -315.5t28 -316.5h-133q-31 132 -31 334.5t-55.5 302.5t-187.5 100q-87 0 -168 -14 v-723h-135z" />
<glyph unicode="L" horiz-adv-x="737" d="M111 0v1475h135v-1344h442v-131h-577z" />
<glyph unicode="M" horiz-adv-x="1266" d="M111 0v1475h213l309 -1246l307 1246h213v-1475h-127v1296l-328 -1296h-131l-325 1290v-1290h-131z" />
<glyph unicode="N" horiz-adv-x="999" d="M111 0v1475h194l461 -1229v1229h123v-1475h-172l-484 1280v-1280h-122z" />
<glyph unicode="O" horiz-adv-x="1055" d="M78 682v111q0 347 116.5 523.5t332.5 176.5t332 -176.5t116 -523.5v-111q0 -347 -116 -523.5t-332 -176.5t-332.5 176.5t-116.5 523.5zM217 700q0 -292 80.5 -444t228.5 -152q310 0 310 596v74q0 596 -310 596q-148 0 -228.5 -152t-80.5 -444v-74z" />
<glyph unicode="P" horiz-adv-x="844" d="M109 0v1475h276q182 0 288.5 -110.5t106.5 -309.5t-91.5 -315.5t-266.5 -116.5q-112 0 -180 26v-649h-133zM242 784q101 -36 188 -36q209 0 209 315q0 285 -264 285h-133v-564z" />
<glyph unicode="Q" horiz-adv-x="1059" d="M80 735.5q0 374.5 115.5 570t332 195.5t333 -195.5t116.5 -568.5q0 -439 -156 -614v-6q91 -17 187 -17v-127l-334 27q-67 -27 -146 -27q-218 0 -333 194t-115 568.5zM219 737q0 -633 309 -633q148 0 229 160.5t81 472.5t-81 474.5t-229 162.5t-228.5 -162t-80.5 -475z " />
<glyph unicode="R" horiz-adv-x="887" d="M111 0v1475h348q157 0 241 -106.5t84 -291.5q0 -248 -190 -329v-5q178 -76 178 -411q0 -169 31 -332h-137q-29 158 -29 332q0 375 -227 375q-76 0 -164 -11v-696h-135zM246 813q72 -12 179 -12t163.5 78t56.5 220t-51.5 195.5t-157.5 53.5h-190v-535z" />
<glyph unicode="S" horiz-adv-x="899" d="M78 395h139q0 -158 52 -226.5t168.5 -68.5t182.5 78.5t66 212t-48.5 199.5t-225 124t-250.5 138.5t-74 252.5t97 284t264 112t254.5 -97.5t87.5 -256.5h-136q0 227 -206 227q-99 0 -159.5 -70t-60.5 -193t52 -172t228.5 -117t244 -145t67.5 -272.5t-96 -313.5t-276 -118 q-371 0 -371 422z" />
<glyph unicode="T" horiz-adv-x="823" d="M16 1343v132h791v-132h-332v-1343h-129v1343h-330z" />
<glyph unicode="U" horiz-adv-x="1016" d="M106 561v914h138v-877q0 -494 264 -494t264 494v877h137v-914q0 -308 -97.5 -448t-303 -140t-304 140t-98.5 448z" />
<glyph unicode="V" horiz-adv-x="877" d="M14 1475h144l280 -1268l281 1268h143l-334 -1475h-180z" />
<glyph unicode="W" horiz-adv-x="1339" d="M16 1475h142l202 -1213l220 1213h178l219 -1209l205 1209h139l-264 -1475h-154l-235 1243l-236 -1243h-147z" />
<glyph unicode="X" horiz-adv-x="952" d="M31 0l379 774l-332 701h151l254 -570l256 570h152l-332 -701l367 -774h-148l-295 635l-295 -635h-157z" />
<glyph unicode="Y" horiz-adv-x="891" d="M25 1475h149l270 -730l273 730h149l-356 -891v-584h-129v584z" />
<glyph unicode="Z" horiz-adv-x="807" d="M37 150l590 1193h-553v132h663l19 -146l-592 -1198h596v-131h-697z" />
<glyph unicode="[" horiz-adv-x="555" d="M164 -459v2130h301v-125h-164v-1880h164v-125h-301z" />
<glyph unicode="\" horiz-adv-x="471" d="M0 1501h115l356 -1528h-115z" />
<glyph unicode="]" horiz-adv-x="555" d="M88 -334h164v1880h-164v125h301v-2130h-301v125z" />
<glyph unicode="^" horiz-adv-x="975" d="M96 944l332 557h117l332 -557h-115l-277 420l-274 -420h-115z" />
<glyph unicode="_" horiz-adv-x="1049" d="M-12 -307h1073v-144h-1073v144z" />
<glyph unicode="`" horiz-adv-x="463" d="M96 1489h125l123 -324h-76z" />
<glyph unicode="a" horiz-adv-x="737" d="M61 288.5q0 147.5 85 243t239 95.5h119v145q0 180 -135 180q-61 0 -100.5 -47t-39.5 -125h-120q0 269 251 269q149 0 212 -73.5t63 -234.5v-602q0 -75 12 -139h-112q-12 49 -17 139h-4q-44 -164 -223 -164q-108 0 -169 83t-61 230.5zM193 306.5q0 -93.5 37.5 -150 t93.5 -56.5q180 0 180 303v123h-107q-98 0 -151 -63t-53 -156.5z" />
<glyph unicode="b" horiz-adv-x="809" d="M92 0q8 84 8 197v1282h127v-596h2q31 72 93 114.5t135 42.5q291 0 291 -528q0 -252 -79 -392t-225 -140t-223 163q0 -85 -18 -143h-111zM221 510q0 -201 75 -318.5t132 -117.5q83 0 136.5 119t53.5 323.5t-50 316t-131 111.5t-148.5 -116.5t-67.5 -317.5z" />
<glyph unicode="c" horiz-adv-x="698" d="M66 520q0 522 301 522q118 0 193 -85.5t75 -227.5h-123q0 90 -42 146.5t-103 56.5q-78 0 -125 -109t-47 -303q0 -424 172 -424q63 0 104 64.5t41 165.5h123q0 -159 -71.5 -249.5t-206 -90.5t-213 142t-78.5 392z" />
<glyph unicode="d" horiz-adv-x="809" d="M61 515q0 255 76 390t213 135q160 0 230 -157v596h129v-1282q0 -127 10 -197h-121q-10 65 -10 129q-70 -149 -219.5 -149t-228.5 140t-79 395zM190 516q0 -204 54 -323t134.5 -119t145 113t64.5 318.5t-67.5 322t-148.5 116.5t-131.5 -112t-50.5 -316z" />
<glyph unicode="e" horiz-adv-x="748" d="M66 494q0 548 317 548q144 0 220.5 -112.5t76.5 -317.5q0 -112 -72 -112h-415v-82q0 -322 192 -322q74 0 121 57t47 154h117q0 -146 -75.5 -233.5t-201.5 -87.5q-327 0 -327 508zM193 604h360v39q0 138 -47.5 215.5t-125 77.5t-132.5 -87.5t-55 -244.5z" />
<glyph unicode="f" horiz-adv-x="401" d="M-12 905v111h133v184q0 299 190 299q65 0 123 -14v-123q-54 18 -96 18q-92 0 -92 -184v-180h157v-111h-157v-905h-125v905h-133z" />
<glyph unicode="g" horiz-adv-x="801" d="M68 557q0 235 78 367.5t223.5 132.5t210.5 -137l14 112h111q-9 -117 -9 -170v-805q0 -247 -73 -343.5t-231.5 -96.5t-225 78.5t-66.5 245.5h138q0 -124 38 -172t115 -48q180 0 180 306v151h-2q-55 -123 -200 -123q-301 0 -301 502zM201 544.5q0 -190.5 50.5 -295 t136.5 -104.5t136.5 115t50.5 277q0 421 -184 421q-82 0 -136 -111.5t-54 -302z" />
<glyph unicode="h" horiz-adv-x="784" d="M100 0v1475h127v-586h4q74 151 230 151q227 0 227 -407v-633h-127v649q0 273 -145 273q-63 0 -126 -83.5t-63 -185.5v-653h-127z" />
<glyph unicode="i" horiz-adv-x="342" d="M100 1294v181h142v-181h-142zM111 0v1020h122v-1020h-122z" />
<glyph unicode="j" horiz-adv-x="342" d="M-12 -244q90 0 112 56q11 26 11 135v1077h127v-1120q0 -146 -41.5 -209.5t-137.5 -63.5h-71v125zM102 1298v181h146v-181h-146z" />
<glyph unicode="k" horiz-adv-x="756" d="M109 0v1475h127v-883q42 -14 100 -14q129 0 129 206q0 250 125 250q47 0 86 -14v-107q-28 7 -41 7q-57 0 -57 -109v-66q0 -156 -62 -194q84 -46 113.5 -122.5t29.5 -208.5t25 -220h-127q-22 83 -22 222.5t-38.5 202t-118 62.5t-142.5 -14v-473h-127z" />
<glyph unicode="l" horiz-adv-x="342" d="M111 0v1475h122v-1475h-122z" />
<glyph unicode="m" horiz-adv-x="1239" d="M96 1028h125l8 -115h2q81 136 219.5 136t198.5 -148q36 64 106 106t148 42q124 0 180 -82t56 -279v-688h-127v659q0 273 -133 273q-68 0 -130.5 -75.5t-62.5 -215.5v-641h-129v643q0 168 -32 228.5t-100 60.5t-132 -81t-64 -194v-657h-127v823q0 139 -6 205z" />
<glyph unicode="n" horiz-adv-x="793" d="M96 1028h125l8 -115h4q77 136 232 136q119 0 174 -81t55 -315v-653h-129v653q0 164 -27.5 224.5t-102.5 60.5t-140.5 -95t-65.5 -235v-608h-127v825q0 173 -6 203z" />
<glyph unicode="o" horiz-adv-x="799" d="M66 483v62q0 497 333.5 497t333.5 -497v-62q0 -497 -333.5 -497t-333.5 497zM193 483q0 -191 56 -287t150 -96t150.5 96.5t56.5 286.5v62q0 190 -56.5 286.5t-150.5 96.5t-150 -96t-56 -287v-62z" />
<glyph unicode="p" horiz-adv-x="817" d="M92 1036h121q8 -104 8 -133h2q81 154 232 154q301 0 301 -534.5t-295 -534.5q-159 0 -232 149v-506h-127v1205q0 145 -10 200zM221 523.5q0 -211.5 67.5 -327.5t150.5 -116t135.5 114.5t52.5 311.5q0 455 -197 455q-83 0 -141 -103q-68 -123 -68 -334.5z" />
<glyph unicode="q" horiz-adv-x="817" d="M61 522.5q0 534.5 301 534.5q152 0 230 -154h4q0 81 8 133h121q-12 -66 -12 -200v-1205h-127v506q-73 -149 -232 -149q-293 0 -293 534.5zM190 506q0 -197 52.5 -311.5t135.5 -114.5t150.5 116t67.5 327.5t-63 324.5t-148 113q-195 0 -195 -455z" />
<glyph unicode="r" horiz-adv-x="489" d="M96 1028h123q10 -43 10 -158h4q39 97 77.5 127.5t92.5 30.5t72 -6v-131q-45 12 -80 12q-67 0 -116.5 -99.5t-49.5 -221.5v-582h-127v879q0 107 -6 149z" />
<glyph unicode="s" horiz-adv-x="676" d="M59 289h129q0 -113 37 -154t104.5 -41t106.5 50.5t39 131.5q0 145 -80 175l-149 55q-180 67 -180 242q0 134 73.5 217.5t197.5 83.5t189.5 -73t65.5 -198h-127q0 170 -131 170q-60 0 -98.5 -47t-38.5 -121q0 -109 102 -153l156 -68q159 -69 159 -268q0 -141 -73 -226 t-203 -85q-279 0 -279 309z" />
<glyph unicode="t" horiz-adv-x="395" d="M10 905v115h103v209l127 76v-285h145v-115h-145v-651q0 -160 55 -160q32 0 74 19v-109q-51 -24 -101 -24q-90 0 -122.5 55.5t-32.5 183.5v686h-103z" />
<glyph unicode="u" horiz-adv-x="793" d="M100 385v643h127v-653q0 -172 34 -228.5t113.5 -56.5t134 109.5t54.5 279.5v549h125v-825q0 -153 10 -203h-127l-8 131q-72 -151 -210 -151t-195.5 95t-57.5 310z" />
<glyph unicode="v" horiz-adv-x="721" d="M16 1028h127l217 -878l215 878h130l-271 -1028h-147z" />
<glyph unicode="w" horiz-adv-x="1118" d="M14 1028h125l172 -876l174 876h148l174 -876l172 876h127l-229 -1028h-144l-174 881l-174 -881h-143z" />
<glyph unicode="x" horiz-adv-x="709" d="M25 0l256 537l-232 491h127l178 -369l181 369h124l-229 -491l252 -537h-135l-193 408l-190 -408h-139z" />
<glyph unicode="y" horiz-adv-x="723" d="M23 1036h124l215 -831l218 831h127l-381 -1405h-121l92 361z" />
<glyph unicode="z" horiz-adv-x="606" d="M39 119l395 790h-368v119h473l18 -119l-391 -790h397v-119h-506z" />
<glyph unicode="{" horiz-adv-x="567" d="M12 551v113q103 0 147 68t44 224v367q0 209 66 278.5t239 69.5h31v-119h-31q-99 0 -132.5 -53t-33.5 -196v-363q0 -250 -139 -332v-4q139 -82 139 -332v-360q0 -145 33.5 -198.5t132.5 -53.5h31v-119h-35q-179 0 -240 67.5t-61 280.5v367q0 156 -44.5 225.5t-146.5 69.5z " />
<glyph unicode="|" horiz-adv-x="457" d="M162 -451v1952h133v-1952h-133z" />
<glyph unicode="}" horiz-adv-x="567" d="M29 -340h30q99 0 132.5 53.5t33.5 198.5v360q0 250 140 332v4q-140 82 -140 332v363q0 143 -33.5 196t-132.5 53h-30v119h30q173 0 239.5 -69.5t66.5 -278.5v-367q0 -156 44 -224t146 -68v-113q-102 0 -146 -69.5t-44 -225.5v-367q0 -213 -61.5 -280.5t-240.5 -67.5h-34 v119z" />
<glyph unicode="~" horiz-adv-x="975" d="M70 618v173q86 98 225 98q94 0 222 -55.5t177 -55.5q103 0 213 113v-176q-95 -92 -229 -92q-90 0 -210 54t-185 54q-97 0 -213 -113z" />
<glyph unicode="&#xa9;" horiz-adv-x="1446" d="M98 671.5q0 250.5 181 434.5t443.5 184t445 -184.5t182.5 -440.5t-187 -438t-441 -182t-439 188t-185 438.5zM180 667.5q0 -218.5 159 -377.5t383 -159t384 154t160 381t-158.5 385.5t-384 158.5t-384.5 -162t-159 -380.5zM483 665q0 166 70.5 263.5t172.5 97.5t163 -60 t67 -157h-94q-19 129 -131 129q-143 0 -143 -269.5t149 -269.5q111 0 131 142h93q-5 -104 -68 -169t-169.5 -65t-173.5 96t-67 262z" />
<glyph unicode="&#xab;" horiz-adv-x="772" d="M125 516l133 385h107l-115 -385l121 -401h-105zM379 516l137 385h105l-115 -385l121 -401h-103z" />
<glyph unicode="&#xae;" horiz-adv-x="1446" d="M98 671.5q0 250.5 181 434.5t443.5 184t445 -184.5t182.5 -440.5t-187 -438t-441 -182t-439 188t-185 438.5zM180 667.5q0 -218.5 159 -377.5t383 -159t384 154t160 381t-158.5 385.5t-384 158.5t-384.5 -162t-159 -380.5zM500 322v704h250q233 0 233 -184 q0 -118 -129 -160v-4q119 -49 119 -193q0 -75 26 -163h-96q-26 70 -26 163q0 162 -164 162q-71 0 -119 -6v-319h-94zM594 725q43 -8 129 -8q160 0 160 117q0 69 -38.5 89.5t-111.5 20.5h-139v-219z" />
<glyph unicode="&#xbb;" horiz-adv-x="772" d="M141 115l123 401l-114 385h104l137 -385l-147 -401h-103zM397 115l125 401l-116 385h104l137 -385l-145 -401h-105z" />
<glyph unicode="&#x401;" horiz-adv-x="829" d="M113 -6v1474h616v-131h-481v-514h463v-127h-463v-571h491v-131h-626zM248 1585v166h123v-166h-123zM481 1585v166h123v-166h-123z" />
<glyph unicode="&#x402;" d="M31 371l166 166q-68 87 -68 201.5t68 207.5l-166 166l65 66l164 -166q90 69 205.5 69t202.5 -69l163 166l66 -66l-164 -166q66 -90 66 -206.5t-66 -202.5l164 -166l-66 -66l-163 166q-93 -70 -205 -70t-203 70l-164 -166zM223 741.5q0 -101.5 71 -173.5t171.5 -72t172 72 t71.5 173.5t-71.5 174.5t-171.5 73t-171.5 -73t-71.5 -174.5z" />
<glyph unicode="&#x403;" d="M31 371l166 166q-68 87 -68 201.5t68 207.5l-166 166l65 66l164 -166q90 69 205.5 69t202.5 -69l163 166l66 -66l-164 -166q66 -90 66 -206.5t-66 -202.5l164 -166l-66 -66l-163 166q-93 -70 -205 -70t-203 70l-164 -166zM223 741.5q0 -101.5 71 -173.5t171.5 -72t172 72 t71.5 173.5t-71.5 174.5t-171.5 73t-171.5 -73t-71.5 -174.5z" />
<glyph unicode="&#x404;" d="M31 371l166 166q-68 87 -68 201.5t68 207.5l-166 166l65 66l164 -166q90 69 205.5 69t202.5 -69l163 166l66 -66l-164 -166q66 -90 66 -206.5t-66 -202.5l164 -166l-66 -66l-163 166q-93 -70 -205 -70t-203 70l-164 -166zM223 741.5q0 -101.5 71 -173.5t171.5 -72t172 72 t71.5 173.5t-71.5 174.5t-171.5 73t-171.5 -73t-71.5 -174.5z" />
<glyph unicode="&#x405;" d="M31 371l166 166q-68 87 -68 201.5t68 207.5l-166 166l65 66l164 -166q90 69 205.5 69t202.5 -69l163 166l66 -66l-164 -166q66 -90 66 -206.5t-66 -202.5l164 -166l-66 -66l-163 166q-93 -70 -205 -70t-203 70l-164 -166zM223 741.5q0 -101.5 71 -173.5t171.5 -72t172 72 t71.5 173.5t-71.5 174.5t-171.5 73t-171.5 -73t-71.5 -174.5z" />
<glyph unicode="&#x406;" d="M31 371l166 166q-68 87 -68 201.5t68 207.5l-166 166l65 66l164 -166q90 69 205.5 69t202.5 -69l163 166l66 -66l-164 -166q66 -90 66 -206.5t-66 -202.5l164 -166l-66 -66l-163 166q-93 -70 -205 -70t-203 70l-164 -166zM223 741.5q0 -101.5 71 -173.5t171.5 -72t172 72 t71.5 173.5t-71.5 174.5t-171.5 73t-171.5 -73t-71.5 -174.5z" />
<glyph unicode="&#x407;" d="M31 371l166 166q-68 87 -68 201.5t68 207.5l-166 166l65 66l164 -166q90 69 205.5 69t202.5 -69l163 166l66 -66l-164 -166q66 -90 66 -206.5t-66 -202.5l164 -166l-66 -66l-163 166q-93 -70 -205 -70t-203 70l-164 -166zM223 741.5q0 -101.5 71 -173.5t171.5 -72t172 72 t71.5 173.5t-71.5 174.5t-171.5 73t-171.5 -73t-71.5 -174.5z" />
<glyph unicode="&#x408;" d="M31 371l166 166q-68 87 -68 201.5t68 207.5l-166 166l65 66l164 -166q90 69 205.5 69t202.5 -69l163 166l66 -66l-164 -166q66 -90 66 -206.5t-66 -202.5l164 -166l-66 -66l-163 166q-93 -70 -205 -70t-203 70l-164 -166zM223 741.5q0 -101.5 71 -173.5t171.5 -72t172 72 t71.5 173.5t-71.5 174.5t-171.5 73t-171.5 -73t-71.5 -174.5z" />
<glyph unicode="&#x409;" d="M31 371l166 166q-68 87 -68 201.5t68 207.5l-166 166l65 66l164 -166q90 69 205.5 69t202.5 -69l163 166l66 -66l-164 -166q66 -90 66 -206.5t-66 -202.5l164 -166l-66 -66l-163 166q-93 -70 -205 -70t-203 70l-164 -166zM223 741.5q0 -101.5 71 -173.5t171.5 -72t172 72 t71.5 173.5t-71.5 174.5t-171.5 73t-171.5 -73t-71.5 -174.5z" />
<glyph unicode="&#x40a;" d="M31 371l166 166q-68 87 -68 201.5t68 207.5l-166 166l65 66l164 -166q90 69 205.5 69t202.5 -69l163 166l66 -66l-164 -166q66 -90 66 -206.5t-66 -202.5l164 -166l-66 -66l-163 166q-93 -70 -205 -70t-203 70l-164 -166zM223 741.5q0 -101.5 71 -173.5t171.5 -72t172 72 t71.5 173.5t-71.5 174.5t-171.5 73t-171.5 -73t-71.5 -174.5z" />
<glyph unicode="&#x40b;" d="M31 371l166 166q-68 87 -68 201.5t68 207.5l-166 166l65 66l164 -166q90 69 205.5 69t202.5 -69l163 166l66 -66l-164 -166q66 -90 66 -206.5t-66 -202.5l164 -166l-66 -66l-163 166q-93 -70 -205 -70t-203 70l-164 -166zM223 741.5q0 -101.5 71 -173.5t171.5 -72t172 72 t71.5 173.5t-71.5 174.5t-171.5 73t-171.5 -73t-71.5 -174.5z" />
<glyph unicode="&#x40c;" d="M31 371l166 166q-68 87 -68 201.5t68 207.5l-166 166l65 66l164 -166q90 69 205.5 69t202.5 -69l163 166l66 -66l-164 -166q66 -90 66 -206.5t-66 -202.5l164 -166l-66 -66l-163 166q-93 -70 -205 -70t-203 70l-164 -166zM223 741.5q0 -101.5 71 -173.5t171.5 -72t172 72 t71.5 173.5t-71.5 174.5t-171.5 73t-171.5 -73t-71.5 -174.5z" />
<glyph unicode="&#x40e;" d="M31 371l166 166q-68 87 -68 201.5t68 207.5l-166 166l65 66l164 -166q90 69 205.5 69t202.5 -69l163 166l66 -66l-164 -166q66 -90 66 -206.5t-66 -202.5l164 -166l-66 -66l-163 166q-93 -70 -205 -70t-203 70l-164 -166zM223 741.5q0 -101.5 71 -173.5t171.5 -72t172 72 t71.5 173.5t-71.5 174.5t-171.5 73t-171.5 -73t-71.5 -174.5z" />
<glyph unicode="&#x40f;" d="M31 371l166 166q-68 87 -68 201.5t68 207.5l-166 166l65 66l164 -166q90 69 205.5 69t202.5 -69l163 166l66 -66l-164 -166q66 -90 66 -206.5t-66 -202.5l164 -166l-66 -66l-163 166q-93 -70 -205 -70t-203 70l-164 -166zM223 741.5q0 -101.5 71 -173.5t171.5 -72t172 72 t71.5 173.5t-71.5 174.5t-171.5 73t-171.5 -73t-71.5 -174.5z" />
<glyph unicode="&#x410;" horiz-adv-x="969" d="M14 0l408 1475h149l385 -1475h-151l-103 393h-446l-109 -393h-133zM289 516h389l-189 787z" />
<glyph unicode="&#x411;" horiz-adv-x="856" d="M111 0v1475h618v-127h-483v-502q93 24 200 24q166 0 252 -117t86 -329q0 -424 -342 -424h-331zM246 127h172q122 0 173.5 71t51.5 232q0 313 -199 313q-99 0 -198 -24v-592z" />
<glyph unicode="&#x412;" horiz-adv-x="899" d="M113 0v1475h344q148 0 239.5 -94t91.5 -269q0 -113 -44 -208.5t-128 -125.5v-4q209 -70 209 -362q0 -209 -92.5 -310.5t-249.5 -101.5h-370zM248 121h217q217 0 217 289q0 309 -266 309q-98 0 -168 -14v-584zM248 838q79 -17 168 -17q231 0 231 266.5t-203 266.5h-196 v-516z" />
<glyph unicode="&#x413;" horiz-adv-x="682" d="M111 0v1475h559v-129h-424v-1346h-135z" />
<glyph unicode="&#x414;" horiz-adv-x="985" d="M0 129h20q77 0 125 111q52 124 52 356v879h628v-1346h125v-485h-129q13 100 13 356h-717q0 -212 12 -356h-129v485zM231 129h457v1217h-362v-766q0 -318 -95 -439v-12z" />
<glyph unicode="&#x415;" horiz-adv-x="829" d="M111 0v1475h618v-129h-483v-512h463v-125h-463v-580h491v-129h-626z" />
<glyph unicode="&#x416;" horiz-adv-x="1384" d="M84 0q29 87 29 312.5t37 320t153 170.5q-61 80 -83.5 144t-22.5 161v90q0 166 -56 166q-27 0 -57 -12v125q28 16 102 16q136 0 136 -262v-148q0 -103 46 -172t118.5 -69t142.5 14v619h127v-619q73 -14 144.5 -14t118 69t46.5 172v148q0 262 133 262q73 0 105 -16v-125 q-30 12 -60 12q-53 0 -53 -166v-90q0 -97 -23 -161t-86 -144q116 -76 154.5 -171.5t38.5 -320t29 -311.5h-134q-34 132 -34 334.5t-57 302.5t-189 100q-60 0 -133 -14v-723h-127v723q-73 14 -133 14q-132 0 -189 -100t-57 -306t-33 -331h-133z" />
<glyph unicode="&#x417;" horiz-adv-x="903" d="M57 360h142q0 -128 48 -194t171 -66q272 0 272 308q0 146 -70.5 225.5t-164 79.5t-144.5 -8v116q47 -10 142.5 -10t154 82t58.5 207q0 274 -224 274q-217 0 -217 -250h-143q0 167 100 272t272 105t258.5 -116.5t86.5 -292.5q0 -249 -189 -332q219 -72 219 -340 q0 -212 -101 -329.5t-285 -117.5t-285 109.5t-101 277.5z" />
<glyph unicode="&#x418;" horiz-adv-x="1004" d="M111 0v1475h133v-1194l508 1194h141v-1475h-135v1194l-508 -1194h-139z" />
<glyph unicode="&#x419;" horiz-adv-x="1004" d="M111 0v1475h133v-1199l508 1199h141v-1475h-135v1194l-508 -1194h-139zM270 1872h123q0 -71 32.5 -115.5t76 -44.5t76 44.5t32.5 115.5h123q0 -110 -59 -184t-171.5 -74t-172.5 74.5t-60 183.5z" />
<glyph unicode="&#x41a;" horiz-adv-x="907" d="M113 0v1475h135v-619q78 -14 161.5 -14t132 70t48.5 171v148q0 262 133 262q54 0 102 -16v-125q-36 12 -59 12q-53 0 -53 -166v-90q0 -96 -23.5 -160t-87.5 -145q117 -76 155 -171t38 -315.5t28 -316.5h-133q-31 132 -31 334.5t-55.5 302.5t-187.5 100q-87 0 -168 -14 v-723h-135z" />
<glyph unicode="&#x41b;" horiz-adv-x="924" d="M0 6v141q69 -22 113 -22q86 0 86 317v1033h616v-1475h-137v1346h-352v-947q0 -413 -199 -413q-81 0 -127 20z" />
<glyph unicode="&#x41c;" horiz-adv-x="1266" d="M111 0v1475h213l309 -1246l307 1246h213v-1475h-127v1296l-328 -1296h-131l-325 1290v-1290h-131z" />
<glyph unicode="&#x41d;" horiz-adv-x="979" d="M111 0v1475h133v-650h491v650h133v-1475h-133v702h-491v-702h-133z" />
<glyph unicode="&#x41e;" horiz-adv-x="1055" d="M78 682v111q0 347 116.5 523.5t332.5 176.5t332 -176.5t116 -523.5v-111q0 -347 -116 -523.5t-332 -176.5t-332.5 176.5t-116.5 523.5zM217 700q0 -292 80.5 -444t228.5 -152q310 0 310 596v74q0 596 -310 596q-148 0 -228.5 -152t-80.5 -444v-74z" />
<glyph unicode="&#x41f;" horiz-adv-x="965" d="M113 0v1475h739v-1475h-133v1343h-473v-1343h-133z" />
<glyph unicode="&#x420;" horiz-adv-x="844" d="M109 0v1475h276q182 0 288.5 -110.5t106.5 -309.5t-91.5 -315.5t-266.5 -116.5q-112 0 -180 26v-649h-133zM242 784q101 -36 188 -36q209 0 209 315q0 285 -264 285h-133v-564z" />
<glyph unicode="&#x421;" horiz-adv-x="905" d="M78 678v121q0 702 393 702q176 0 275.5 -105t99.5 -272h-139q0 110 -63.5 180t-156.5 70q-116 0 -194 -159.5t-78 -440.5v-69q0 -286 74.5 -445.5t197.5 -159.5q93 0 156.5 72t63.5 188h139q0 -170 -100 -278.5t-279.5 -108.5t-284 180t-104.5 525z" />
<glyph unicode="&#x422;" horiz-adv-x="823" d="M16 1343v132h791v-132h-332v-1343h-129v1343h-330z" />
<glyph unicode="&#x423;" horiz-adv-x="815" d="M25 1481h139l254 -1123l252 1123h139l-338 -1422q-34 -143 -93.5 -205.5t-162.5 -62.5q-53 0 -115 37v137q68 -51 103 -51q108 0 149 188z" />
<glyph unicode="&#x424;" horiz-adv-x="1223" d="M57 747.5q0 301.5 145 449.5q110 112 265 112h82v192h125v-192h82q155 0 264 -112q145 -148 145 -449.5t-145 -450.5q-109 -113 -264 -113h-82v-211h-125v211h-82q-155 0 -265 113q-145 149 -145 450.5zM195 748.5q0 -451.5 280 -451.5h78v903h-78q-280 0 -280 -451.5z M670 297h78q280 0 280 451.5t-280 451.5h-78v-903z" />
<glyph unicode="&#x425;" horiz-adv-x="952" d="M31 0l379 774l-332 701h151l254 -570l256 570h152l-332 -701l367 -774h-148l-295 635l-295 -635h-157z" />
<glyph unicode="&#x426;" horiz-adv-x="1018" d="M113 0v1475h133v-1346h473v1346h135v-1346h125v-485h-127q12 144 12 356h-751z" />
<glyph unicode="&#x427;" horiz-adv-x="850" d="M63 1069v406h136v-418q0 -281 194 -281q116 0 211 29v670h133v-1475h-133v696q-128 -37 -255 -37t-206.5 100.5t-79.5 309.5z" />
<glyph unicode="&#x428;" horiz-adv-x="1382" d="M113 0v1475h133v-1344h381v1344h127v-1344h383v1344h131v-1475h-1155z" />
<glyph unicode="&#x429;" horiz-adv-x="1432" d="M113 0v1475h131v-1346h379v1346h131v-1346h381v1346h131v-1346h133v-485h-129q14 112 14 356h-1171z" />
<glyph unicode="&#x42a;" horiz-adv-x="989" d="M39 1343v132h338v-625q91 20 190 20q351 0 351 -446q0 -424 -340 -424h-334v1343h-205zM377 127h172q125 0 178 71t53 232q0 313 -200 313q-116 0 -203 -20v-596z" />
<glyph unicode="&#x42b;" horiz-adv-x="1143" d="M113 0v1475h131v-625q86 20 186 20q352 0 352 -446q0 -424 -342 -424h-327zM244 127h172q123 0 174 70.5t51 232.5q0 313 -199 313q-115 0 -198 -20v-596zM897 0v1475h133v-1475h-133z" />
<glyph unicode="&#x42c;" horiz-adv-x="854" d="M111 0v1475h133v-625q83 20 186 20q352 0 352 -446q0 -424 -342 -424h-329zM244 127h172q123 0 174 70.5t51 232.5q0 313 -199 313q-118 0 -198 -20v-596z" />
<glyph unicode="&#x42d;" horiz-adv-x="907" d="M57 360h142q0 -116 63 -188t156 -72q272 0 272 609h-379v118h379q0 547 -272 547q-92 0 -155.5 -65t-63.5 -166h-142q0 157 101 257.5t280 100.5t285 -170t106 -518v-98q0 -742 -395 -742q-175 0 -276 109.5t-101 277.5z" />
<glyph unicode="&#x42e;" horiz-adv-x="1337" d="M111 0v1475h133v-648h129q0 300 127 483t322.5 183t317.5 -178t122 -461v-170q0 -337 -114.5 -519.5t-325 -182.5t-330 188t-119.5 539h-129v-709h-133zM516 719q0 -309 82.5 -462t226.5 -153q295 0 295 615v94q0 267 -83 412t-215 145t-219 -144.5t-87 -412.5v-94z" />
<glyph unicode="&#x42f;" horiz-adv-x="897" d="M90 0q16 58 16 260.5t33.5 302t134.5 152.5q-93 51 -130.5 134.5t-37.5 246t94 271t267 108.5h317v-1475h-133v647q-68 17 -183 17t-168.5 -88.5t-53.5 -288t-17 -287.5h-139zM246 1075q0 -307 219 -307q119 0 186 14v568h-188q-114 0 -165.5 -64t-51.5 -211z" />
<glyph unicode="&#x430;" horiz-adv-x="737" d="M61 288.5q0 147.5 85 243t239 95.5h119v145q0 180 -135 180q-61 0 -100.5 -47t-39.5 -125h-120q0 269 251 269q149 0 212 -73.5t63 -234.5v-602q0 -75 12 -139h-112q-12 49 -17 139h-4q-44 -164 -223 -164q-108 0 -169 83t-61 230.5zM193 306.5q0 -93.5 37.5 -150 t93.5 -56.5q180 0 180 303v123h-107q-98 0 -151 -63t-53 -156.5z" />
<glyph unicode="&#x431;" horiz-adv-x="797" d="M70 612v125q0 656 311 656h68q138 0 221 86v-129q-33 -40 -82.5 -58t-171.5 -18q-221 0 -221 -447q46 104 94 148.5t133 44.5q309 0 309 -471v-74q0 -233 -91.5 -364t-238.5 -131q-331 0 -331 632zM195 499.5q0 -405.5 206 -405.5q88 0 144.5 96t56.5 285v74 q0 356 -190 356q-217 0 -217 -405.5z" />
<glyph unicode="&#x432;" horiz-adv-x="764" d="M102 0v1040h310q258 0 258 -268q0 -91 -28.5 -140t-98.5 -83v-4q151 -58 151 -269q0 -150 -59.5 -213t-196.5 -63h-336zM229 100h201q71 0 103 39t32 140q0 217 -159 217h-177v-396zM229 594h172q76 0 109 56t33 124q0 168 -137 168h-177v-348z" />
<glyph unicode="&#x433;" horiz-adv-x="530" d="M100 0v1028h418v-123h-291v-905h-127z" />
<glyph unicode="&#x434;" horiz-adv-x="782" d="M0 117h20q115 0 115 262v649h524v-911h93v-377h-115q14 70 14 260h-551q0 -185 15 -260h-115v377zM188 117h342v796h-274v-544q0 -175 -68 -252z" />
<glyph unicode="&#x435;" horiz-adv-x="748" d="M66 494q0 548 317 548q144 0 220.5 -112.5t76.5 -317.5q0 -112 -72 -112h-415v-82q0 -322 192 -322q74 0 121 57t47 154h117q0 -146 -75.5 -233.5t-201.5 -87.5q-327 0 -327 508zM193 604h360v39q0 138 -47.5 215.5t-125 77.5t-132.5 -87.5t-55 -244.5z" />
<glyph unicode="&#x436;" horiz-adv-x="1145" d="M72 0q24 99 24 231q0 243 142 324q-58 104 -58 199v65q0 109 -59 109q-15 0 -39 -6v106q32 14 93 14t87.5 -60t26.5 -181.5t24.5 -166t92.5 -44.5t104 12v426h123v-426q38 -12 105 -12t91.5 45t24.5 165.5t27 181t88 60.5t96 -14v-106q-24 6 -43 6q-55 0 -55 -109v-65 q0 -94 -64 -199q85 -46 116.5 -123t31.5 -209t22 -223h-131q-18 93 -18 233q0 259 -174 259q-49 0 -117 -15v-477h-123v477q-64 15 -115 15q-174 0 -174 -259q0 -155 -20 -233h-129z" />
<glyph unicode="&#x437;" horiz-adv-x="702" d="M61 326h125q0 -236 148 -236q87 0 127.5 45t40.5 142.5t-40.5 156t-97.5 58.5t-102 -9v109q40 -8 98.5 -8t95 50t36.5 136q0 174 -147.5 174t-147.5 -205h-111q0 137 69 223.5t194.5 86.5t192 -72t66.5 -191q0 -160 -106 -231v-35q131 -59 131 -248q0 -140 -76.5 -218.5 t-216.5 -78.5t-209.5 93t-69.5 258z" />
<glyph unicode="&#x438;" horiz-adv-x="825" d="M104 0v1028h127v-795l359 795h131v-1028h-127v791l-358 -791h-132z" />
<glyph unicode="&#x439;" horiz-adv-x="825" d="M104 0v1028h127v-795l359 795h131v-1028h-127v791l-358 -791h-132zM201 1444h98q0 -150 114.5 -150t114.5 150h97q0 -107 -56 -174.5t-156.5 -67.5t-156 67t-55.5 175z" />
<glyph unicode="&#x43a;" horiz-adv-x="764" d="M111 0v1028h127v-428q45 -14 108 -14q127 0 127 207q0 128 27 188.5t98 60.5q47 0 82 -14v-106q-24 6 -39 6q-59 0 -59 -109v-65q0 -96 -60 -199q84 -46 114 -123t30 -205t24 -227h-129q-22 88 -22 226.5t-38.5 198.5t-126.5 60t-136 -10v-475h-127z" />
<glyph unicode="&#x43b;" horiz-adv-x="782" d="M0 0v113q45 -9 66 -9q79 0 79 242v682h535v-1028h-127v913h-285v-528q0 -399 -182 -399q-30 0 -86 14z" />
<glyph unicode="&#x43c;" horiz-adv-x="1028" d="M104 0v1028h201l209 -831l209 831h203v-1028h-125l4 872l-230 -872h-122l-226 872h-4l4 -96v-776h-123z" />
<glyph unicode="&#x43d;" horiz-adv-x="809" d="M104 0v1028h127v-422h347v422h127v-1028h-127v487h-347v-487h-127z" />
<glyph unicode="&#x43e;" horiz-adv-x="799" d="M66 483v62q0 497 333.5 497t333.5 -497v-62q0 -497 -333.5 -497t-333.5 497zM193 483q0 -191 56 -287t150 -96t150.5 96.5t56.5 286.5v62q0 190 -56.5 286.5t-150.5 96.5t-150 -96t-56 -287v-62z" />
<glyph unicode="&#x43f;" horiz-adv-x="795" d="M102 0v1028h590v-1028h-127v903h-336v-903h-127z" />
<glyph unicode="&#x440;" horiz-adv-x="817" d="M92 1036h121q8 -104 8 -133h2q81 154 232 154q301 0 301 -534.5t-295 -534.5q-159 0 -232 149v-506h-127v1205q0 145 -10 200zM221 523.5q0 -211.5 67.5 -327.5t150.5 -116t135.5 114.5t52.5 311.5q0 455 -197 455q-83 0 -141 -103q-68 -123 -68 -334.5z" />
<glyph unicode="&#x441;" horiz-adv-x="698" d="M66 520q0 522 301 522q118 0 193 -85.5t75 -227.5h-123q0 90 -42 146.5t-103 56.5q-78 0 -125 -109t-47 -303q0 -424 172 -424q63 0 104 64.5t41 165.5h123q0 -159 -71.5 -249.5t-206 -90.5t-213 142t-78.5 392z" />
<glyph unicode="&#x442;" horiz-adv-x="616" d="M12 903v125h594v-125h-231v-903h-133v903h-230z" />
<glyph unicode="&#x443;" horiz-adv-x="723" d="M23 1036h124l215 -831l218 831h127l-381 -1405h-121l92 361z" />
<glyph unicode="&#x444;" horiz-adv-x="1208" d="M63 512q0 245 67 378.5t194 133.5q84 0 134.5 -26t84.5 -99v522h123v-522q34 73 84.5 99t134.5 26q258 0 258 -510t-258 -510q-153 0 -219 137v-510h-123v510q-66 -137 -219 -137q-261 0 -261 508zM193 512q0 -186 46.5 -299t126 -113t132.5 109.5t53 317.5t-54 305.5 t-130 97.5q-174 0 -174 -418zM659 527q0 -208 52.5 -317.5t131.5 -109.5t125 112.5t46 299.5q0 418 -172 418q-76 0 -124 -87q-59 -108 -59 -316z" />
<glyph unicode="&#x445;" horiz-adv-x="709" d="M25 0l256 537l-232 491h127l178 -369l181 369h124l-229 -491l252 -537h-135l-193 408l-190 -408h-139z" />
<glyph unicode="&#x446;" horiz-adv-x="809" d="M100 0v1028h127v-911h336v911h129v-911h92v-379h-114q10 80 10 262h-580z" />
<glyph unicode="&#x447;" horiz-adv-x="702" d="M61 721v307h121v-289q0 -109 35.5 -156.5t117.5 -47.5t134 26v467h131v-1028h-131v473q-52 -37 -178.5 -37t-178 72.5t-51.5 212.5z" />
<glyph unicode="&#x448;" horiz-adv-x="1108" d="M104 0v1028h121v-911h269v911h120v-911h269v911h123v-1028h-902z" />
<glyph unicode="&#x449;" horiz-adv-x="1122" d="M104 0v1028h123v-911h267v911h122v-911h267v911h125v-911h92v-379h-117q14 75 14 262h-893z" />
<glyph unicode="&#x44a;" horiz-adv-x="799" d="M25 909v119h272v-430q73 23 168 23q140 0 206 -91.5t66 -230.5q0 -299 -282 -299h-283v909h-147zM297 117h162q149 0 149 193.5t-145 193.5q-75 0 -166 -29v-358z" />
<glyph unicode="&#x44b;" horiz-adv-x="975" d="M102 0v1028h129v-428q69 21 164 21q258 0 258 -316q0 -132 -63 -218.5t-189 -86.5h-299zM231 111h168q127 0 127 190q0 113 -31.5 158t-106 45t-157.5 -25v-368zM743 0v1028h129v-1028h-129z" />
<glyph unicode="&#x44c;" horiz-adv-x="731" d="M102 0v1028h129v-430q65 23 164 23q142 0 208.5 -91.5t66.5 -230.5q0 -299 -285 -299h-283zM231 117h158q150 0 150 194.5t-146 194.5q-79 0 -162 -29v-360z" />
<glyph unicode="&#x44d;" horiz-adv-x="698" d="M61 326h125q0 -230 160 -230q84 0 120 90.5t36 298.5h-230v105h230q0 342 -156 342q-73 0 -116.5 -54.5t-43.5 -136.5h-125q0 136 75 218.5t210 82.5q287 0 287 -475v-59q0 -264 -65 -393t-222 -129q-285 0 -285 340z" />
<glyph unicode="&#x44e;" horiz-adv-x="1059" d="M102 0v1028h127v-438h111q0 221 89.5 336.5t243 115.5t235 -120t81.5 -406q0 -530 -324.5 -530t-324.5 501h-111v-487h-127zM465 514q0 -418 199.5 -418t199.5 420q0 226 -48.5 321t-149.5 95q-201 0 -201 -418z" />
<glyph unicode="&#x44f;" horiz-adv-x="752" d="M86 0q8 13 8 190q0 227 115 289v4q-115 67 -115 256q0 137 72 213t180 76h303v-1028h-127v428q-48 8 -129 8q-174 0 -174 -266q0 -131 -16 -170h-117zM219 739q0 -211 172 -211q80 0 131 17v385h-162q-141 0 -141 -191z" />
<glyph unicode="&#x451;" horiz-adv-x="748" d="M70 489q0 551 313 551q141 0 220 -115.5t79 -320.5q0 -108 -53 -108h-432v-82q0 -156 50.5 -240t131 -84t127.5 59t47 156h117q0 -146 -75.5 -238t-201.5 -92q-323 0 -323 514zM184 1247v180h123v-180h-123zM197 596h356v43q0 138 -47.5 215.5t-124.5 77.5t-130.5 -88.5 t-53.5 -247.5zM444 1247v180h125v-180h-125z" />
<glyph unicode="&#x452;" d="M31 371l166 166q-68 87 -68 201.5t68 207.5l-166 166l65 66l164 -166q90 69 205.5 69t202.5 -69l163 166l66 -66l-164 -166q66 -90 66 -206.5t-66 -202.5l164 -166l-66 -66l-163 166q-93 -70 -205 -70t-203 70l-164 -166zM223 741.5q0 -101.5 71 -173.5t171.5 -72t172 72 t71.5 173.5t-71.5 174.5t-171.5 73t-171.5 -73t-71.5 -174.5z" />
<glyph unicode="&#x453;" d="M31 371l166 166q-68 87 -68 201.5t68 207.5l-166 166l65 66l164 -166q90 69 205.5 69t202.5 -69l163 166l66 -66l-164 -166q66 -90 66 -206.5t-66 -202.5l164 -166l-66 -66l-163 166q-93 -70 -205 -70t-203 70l-164 -166zM223 741.5q0 -101.5 71 -173.5t171.5 -72t172 72 t71.5 173.5t-71.5 174.5t-171.5 73t-171.5 -73t-71.5 -174.5z" />
<glyph unicode="&#x454;" d="M31 371l166 166q-68 87 -68 201.5t68 207.5l-166 166l65 66l164 -166q90 69 205.5 69t202.5 -69l163 166l66 -66l-164 -166q66 -90 66 -206.5t-66 -202.5l164 -166l-66 -66l-163 166q-93 -70 -205 -70t-203 70l-164 -166zM223 741.5q0 -101.5 71 -173.5t171.5 -72t172 72 t71.5 173.5t-71.5 174.5t-171.5 73t-171.5 -73t-71.5 -174.5z" />
<glyph unicode="&#x455;" d="M31 371l166 166q-68 87 -68 201.5t68 207.5l-166 166l65 66l164 -166q90 69 205.5 69t202.5 -69l163 166l66 -66l-164 -166q66 -90 66 -206.5t-66 -202.5l164 -166l-66 -66l-163 166q-93 -70 -205 -70t-203 70l-164 -166zM223 741.5q0 -101.5 71 -173.5t171.5 -72t172 72 t71.5 173.5t-71.5 174.5t-171.5 73t-171.5 -73t-71.5 -174.5z" />
<glyph unicode="&#x456;" d="M31 371l166 166q-68 87 -68 201.5t68 207.5l-166 166l65 66l164 -166q90 69 205.5 69t202.5 -69l163 166l66 -66l-164 -166q66 -90 66 -206.5t-66 -202.5l164 -166l-66 -66l-163 166q-93 -70 -205 -70t-203 70l-164 -166zM223 741.5q0 -101.5 71 -173.5t171.5 -72t172 72 t71.5 173.5t-71.5 174.5t-171.5 73t-171.5 -73t-71.5 -174.5z" />
<glyph unicode="&#x457;" d="M31 371l166 166q-68 87 -68 201.5t68 207.5l-166 166l65 66l164 -166q90 69 205.5 69t202.5 -69l163 166l66 -66l-164 -166q66 -90 66 -206.5t-66 -202.5l164 -166l-66 -66l-163 166q-93 -70 -205 -70t-203 70l-164 -166zM223 741.5q0 -101.5 71 -173.5t171.5 -72t172 72 t71.5 173.5t-71.5 174.5t-171.5 73t-171.5 -73t-71.5 -174.5z" />
<glyph unicode="&#x458;" d="M31 371l166 166q-68 87 -68 201.5t68 207.5l-166 166l65 66l164 -166q90 69 205.5 69t202.5 -69l163 166l66 -66l-164 -166q66 -90 66 -206.5t-66 -202.5l164 -166l-66 -66l-163 166q-93 -70 -205 -70t-203 70l-164 -166zM223 741.5q0 -101.5 71 -173.5t171.5 -72t172 72 t71.5 173.5t-71.5 174.5t-171.5 73t-171.5 -73t-71.5 -174.5z" />
<glyph unicode="&#x459;" d="M31 371l166 166q-68 87 -68 201.5t68 207.5l-166 166l65 66l164 -166q90 69 205.5 69t202.5 -69l163 166l66 -66l-164 -166q66 -90 66 -206.5t-66 -202.5l164 -166l-66 -66l-163 166q-93 -70 -205 -70t-203 70l-164 -166zM223 741.5q0 -101.5 71 -173.5t171.5 -72t172 72 t71.5 173.5t-71.5 174.5t-171.5 73t-171.5 -73t-71.5 -174.5z" />
<glyph unicode="&#x45a;" d="M31 371l166 166q-68 87 -68 201.5t68 207.5l-166 166l65 66l164 -166q90 69 205.5 69t202.5 -69l163 166l66 -66l-164 -166q66 -90 66 -206.5t-66 -202.5l164 -166l-66 -66l-163 166q-93 -70 -205 -70t-203 70l-164 -166zM223 741.5q0 -101.5 71 -173.5t171.5 -72t172 72 t71.5 173.5t-71.5 174.5t-171.5 73t-171.5 -73t-71.5 -174.5z" />
<glyph unicode="&#x45b;" d="M31 371l166 166q-68 87 -68 201.5t68 207.5l-166 166l65 66l164 -166q90 69 205.5 69t202.5 -69l163 166l66 -66l-164 -166q66 -90 66 -206.5t-66 -202.5l164 -166l-66 -66l-163 166q-93 -70 -205 -70t-203 70l-164 -166zM223 741.5q0 -101.5 71 -173.5t171.5 -72t172 72 t71.5 173.5t-71.5 174.5t-171.5 73t-171.5 -73t-71.5 -174.5z" />
<glyph unicode="&#x45c;" d="M31 371l166 166q-68 87 -68 201.5t68 207.5l-166 166l65 66l164 -166q90 69 205.5 69t202.5 -69l163 166l66 -66l-164 -166q66 -90 66 -206.5t-66 -202.5l164 -166l-66 -66l-163 166q-93 -70 -205 -70t-203 70l-164 -166zM223 741.5q0 -101.5 71 -173.5t171.5 -72t172 72 t71.5 173.5t-71.5 174.5t-171.5 73t-171.5 -73t-71.5 -174.5z" />
<glyph unicode="&#x45e;" d="M31 371l166 166q-68 87 -68 201.5t68 207.5l-166 166l65 66l164 -166q90 69 205.5 69t202.5 -69l163 166l66 -66l-164 -166q66 -90 66 -206.5t-66 -202.5l164 -166l-66 -66l-163 166q-93 -70 -205 -70t-203 70l-164 -166zM223 741.5q0 -101.5 71 -173.5t171.5 -72t172 72 t71.5 173.5t-71.5 174.5t-171.5 73t-171.5 -73t-71.5 -174.5z" />
<glyph unicode="&#x45f;" d="M31 371l166 166q-68 87 -68 201.5t68 207.5l-166 166l65 66l164 -166q90 69 205.5 69t202.5 -69l163 166l66 -66l-164 -166q66 -90 66 -206.5t-66 -202.5l164 -166l-66 -66l-163 166q-93 -70 -205 -70t-203 70l-164 -166zM223 741.5q0 -101.5 71 -173.5t171.5 -72t172 72 t71.5 173.5t-71.5 174.5t-171.5 73t-171.5 -73t-71.5 -174.5z" />
<glyph unicode="&#x490;" d="M31 371l166 166q-68 87 -68 201.5t68 207.5l-166 166l65 66l164 -166q90 69 205.5 69t202.5 -69l163 166l66 -66l-164 -166q66 -90 66 -206.5t-66 -202.5l164 -166l-66 -66l-163 166q-93 -70 -205 -70t-203 70l-164 -166zM223 741.5q0 -101.5 71 -173.5t171.5 -72t172 72 t71.5 173.5t-71.5 174.5t-171.5 73t-171.5 -73t-71.5 -174.5z" />
<glyph unicode="&#x491;" d="M31 371l166 166q-68 87 -68 201.5t68 207.5l-166 166l65 66l164 -166q90 69 205.5 69t202.5 -69l163 166l66 -66l-164 -166q66 -90 66 -206.5t-66 -202.5l164 -166l-66 -66l-163 166q-93 -70 -205 -70t-203 70l-164 -166zM223 741.5q0 -101.5 71 -173.5t171.5 -72t172 72 t71.5 173.5t-71.5 174.5t-171.5 73t-171.5 -73t-71.5 -174.5z" />
<glyph unicode="&#x2013;" horiz-adv-x="772" d="M-10 467v94h790v-94h-790z" />
<glyph unicode="&#x2014;" horiz-adv-x="1391" d="M-10 467v94h1411v-94h-1411z" />
<glyph unicode="&#x2018;" horiz-adv-x="346" d="M55 983l142 479h96l-84 -479h-154z" />
<glyph unicode="&#x2019;" horiz-adv-x="346" d="M53 983l82 479h154l-142 -479h-94z" />
<glyph unicode="&#x201a;" horiz-adv-x="346" d="M53 -240l82 480h154l-142 -480h-94z" />
<glyph unicode="&#x201c;" horiz-adv-x="594" d="M57 983l140 479h96l-84 -479h-152zM305 983l141 479h95l-84 -479h-152z" />
<glyph unicode="&#x201d;" horiz-adv-x="594" d="M53 983l82 479h154l-142 -479h-94zM301 983l84 479h152l-140 -479h-96z" />
<glyph unicode="&#x201e;" horiz-adv-x="594" d="M53 -236l82 478h154l-142 -478h-94zM301 -236l84 478h152l-140 -478h-96z" />
<glyph unicode="&#x2020;" horiz-adv-x="772" d="M84 1028v123h248v324h110v-324h242v-123h-242v-1028h-110v1028h-248z" />
<glyph unicode="&#x2021;" d="M31 371l166 166q-68 87 -68 201.5t68 207.5l-166 166l65 66l164 -166q90 69 205.5 69t202.5 -69l163 166l66 -66l-164 -166q66 -90 66 -206.5t-66 -202.5l164 -166l-66 -66l-163 166q-93 -70 -205 -70t-203 70l-164 -166zM223 741.5q0 -101.5 71 -173.5t171.5 -72t172 72 t71.5 173.5t-71.5 174.5t-171.5 73t-171.5 -73t-71.5 -174.5z" />
<glyph unicode="&#x2022;" horiz-adv-x="793" d="M197 736q0 120 57 204t141 84t141.5 -84t57.5 -203t-57.5 -203.5t-142 -84.5t-141 83.5t-56.5 203.5z" />
<glyph unicode="&#x2026;" horiz-adv-x="1391" d="M170 12v228h145v-228h-145zM625 12v228h143v-228h-143zM1075 12v228h148v-228h-148z" />
<glyph unicode="&#x2030;" horiz-adv-x="1833" d="M94 1102q0 373 216 373t216 -357q0 -389 -223 -389q-209 0 -209 373zM201 1105.5q0 -276.5 105.5 -276.5t105.5 276.5t-103 276.5q-108 0 -108 -276.5zM324 -23l553 1498h79l-550 -1498h-82zM766 349q0 372 217 372t217 -354q0 -390 -225 -390q-209 0 -209 372z M879 351.5q0 -275.5 100 -275.5q111 0 111 275.5t-105.5 275.5t-105.5 -275.5zM1309 349q0 372 216 372t216 -354q0 -390 -221 -390q-211 0 -211 372zM1419 352.5q0 -130.5 28.5 -203.5t74.5 -73q110 0 110 275.5t-106 275.5q-48 0 -77.5 -72t-29.5 -202.5z" />
<glyph unicode="&#x2039;" horiz-adv-x="463" d="M98 516l135 385h107l-115 -385l121 -401h-104z" />
<glyph unicode="&#x203a;" horiz-adv-x="465" d="M117 115l123 401l-117 385h106l138 -385l-148 -401h-102z" />
<glyph unicode="&#x2122;" horiz-adv-x="1384" d="M197 1393v82h366v-82h-139v-465h-88v465h-139zM659 928v547h123l123 -392l115 392h121v-547h-80v442h-2l-133 -442h-45l-138 442h-2v-442h-82z" />
<glyph unicode="&#xe000;" horiz-adv-x="1030" d="M0 0v1030h1030v-1030h-1030z" />
</font>
</defs>
</svg>
